<svg width="112" height="112" viewBox="0 0 112 112" fill="none" xmlns="http://www.w3.org/2000/svg">
  <rect width="112" height="112" rx="28" fill="#0A0A0D"/>
  <rect x="1" y="1" width="110" height="110" rx="27" stroke="rgba(255,255,255,0.14)" stroke-width="2"/>
  <circle cx="80" cy="28" r="26" fill="url(#paint0_radial)"/>
  <path d="M30 74V38H46.5C56.9 38 63.4 44.1 63.4 56C63.4 67.9 56.9 74 46.5 74H30ZM38 67.2H45.8C51.7 67.2 55.1 63.5 55.1 56C55.1 48.5 51.7 44.8 45.8 44.8H38V67.2Z" fill="#F2F1ED"/>
  <path d="M72 74V38H94V44.6H79.8V52.5H91.9V59H79.8V67.4H94.4V74H72Z" fill="#F2F1ED" opacity="0.92"/>
  <path d="M27 84H85" stroke="rgba(255,255,255,0.2)" stroke-width="2" stroke-linecap="round"/>
  <text x="56" y="96" text-anchor="middle" fill="#BBBEC6" font-family="Segoe UI, Arial, sans-serif" font-size="10" letter-spacing="4">CROWN</text>
  <defs>
    <radialGradient id="paint0_radial" cx="0" cy="0" r="1" gradientUnits="userSpaceOnUse" gradientTransform="translate(80 28) rotate(90) scale(26)">
      <stop stop-color="#FFFFFF" stop-opacity="0.26"/>
      <stop offset="1" stop-color="#FFFFFF" stop-opacity="0"/>
    </radialGradient>
  </defs>
</svg>
