<svg width="64" height="64" viewBox="0 0 64 64" fill="none" xmlns="http://www.w3.org/2000/svg">
  <rect width="64" height="64" rx="18" fill="#0A0E15"/>
  <rect x="1" y="1" width="62" height="62" rx="17" stroke="rgba(255,255,255,0.12)" stroke-width="2"/>
  <circle cx="23" cy="18" r="16" fill="url(#paint0_radial)"/>
  <path d="M20 44V20H29.2C34.5 20 38 23.1 38 28.1C38 33.1 34.5 36.3 29.2 36.3H24.8V44H20ZM24.8 32.1H28.5C31.2 32.1 32.9 30.8 32.9 28.1C32.9 25.5 31.2 24.1 28.5 24.1H24.8V32.1Z" fill="#F0F4FB"/>
  <path d="M40.5 44V20H45.3V30H48.2L54 20H59.5L52.7 31.4L60.1 44H54.5L49.1 34.8H45.3V44H40.5Z" fill="#F0F4FB" opacity="0.82"/>
  <defs>
    <radialGradient id="paint0_radial" cx="0" cy="0" r="1" gradientUnits="userSpaceOnUse" gradientTransform="translate(23 18) rotate(90) scale(16)">
      <stop stop-color="#89A1FF" stop-opacity="0.5"/>
      <stop offset="1" stop-color="#89A1FF" stop-opacity="0"/>
    </radialGradient>
  </defs>
</svg>
